{
  "accessors": [
    {
      "bufferView": 2,
      "componentType": 5126,
      "count": 24,
      "max": [
        0.3125,
        0.4375,
        0.25
      ],
      "min": [
        -0.375,
        0.0625,
        -0.0625
      ],
      "type": "VEC3"
    },
    {
      "bufferView": 2,
      "byteOffset": 288,
      "componentType": 5126,
      "count": 24,
      "max": [
        1.0,
        1.0,
        1.0
      ],
      "min": [
        -1.0,
        -1.0,
        -1.0
      ],
      "type": "VEC3"
    },
    {
      "bufferView": 1,
      "componentType": 5126,
      "count": 24,
      "max": [
        0.65625,
        0.34375
      ],
      "min": [
        0.40625,
        0.0
      ],
      "type": "VEC2"
    },
    {
      "bufferView": 0,
      "componentType": 5125,
      "count": 36,
      "type": "SCALAR"
    },
    {
      "bufferView": 2,
      "byteOffset": 576,
      "componentType": 5126,
      "count": 24,
      "max": [
        0.375,
        0.5,
        0.3125
      ],
      "min": [
        -0.4375,
        0.0,
        -0.0625
      ],
      "type": "VEC3"
    },
    {
      "bufferView": 2,
      "byteOffset": 864,
      "componentType": 5126,
      "count": 24,
      "max": [
        1.0,
        1.0,
        1.0
      ],
      "min": [
        -1.0,
        -1.0,
        -1.0
      ],
      "type": "VEC3"
    },
    {
      "bufferView": 1,
      "byteOffset": 192,
      "componentType": 5126,
      "count": 24,
      "max": [
        0.40625,
        0.375
      ],
      "min": [
        0.0,
        0.0
      ],
      "type": "VEC2"
    },
    {
      "bufferView": 0,
      "byteOffset": 144,
      "componentType": 5125,
      "count": 36,
      "type": "SCALAR"
    },
    {
      "bufferView": 2,
      "byteOffset": 1152,
      "componentType": 5126,
      "count": 24,
      "max": [
        0.0625,
        0.25,
        0.125
      ],
      "min": [
        -0.6875,
        0.0,
        -0.125
      ],
      "type": "VEC3"
    },
    {
      "bufferView": 2,
      "byteOffset": 1440,
      "componentType": 5126,
      "count": 24,
      "max": [
        1.0,
        1.0,
        1.0
      ],
      "min": [
        -1.0,
        -1.0,
        -1.0
      ],
      "type": "VEC3"
    },
    {
      "bufferView": 1,
      "byteOffset": 384,
      "componentType": 5126,
      "count": 24,
      "max": [
        0.3125,
        0.625
      ],
      "min": [
        0.0,
        0.375
      ],
      "type": "VEC2"
    },
    {
      "bufferView": 0,
      "byteOffset": 288,
      "componentType": 5125,
      "count": 36,
      "type": "SCALAR"
    },
    {
      "bufferView": 2,
      "byteOffset": 1728,
      "componentType": 5126,
      "count": 24,
      "max": [
        0.0625,
        0.1875,
        0.0625
      ],
      "min": [
        -0.125,
        0.0,
        -0.125
      ],
      "type": "VEC3"
    },
    {
      "bufferView": 2,
      "byteOffset": 2016,
      "componentType": 5126,
      "count": 24,
      "max": [
        1.0,
        1.0,
        1.0
      ],
      "min": [
        -1.0,
        -1.0,
        -1.0
      ],
      "type": "VEC3"
    },
    {
      "bufferView": 1,
      "byteOffset": 576,
      "componentType": 5126,
      "count": 24,
      "max": [
        0.390625,
        0.765625
      ],
      "min": [
        0.203125,
        0.625
      ],
      "type": "VEC2"
    },
    {
      "bufferView": 0,
      "byteOffset": 432,
      "componentType": 5125,
      "count": 36,
      "type": "SCALAR"
    },
    {
      "bufferView": 2,
      "byteOffset": 2304,
      "componentType": 5126,
      "count": 24,
      "max": [
        0.0625,
        0.1875,
        0.0625
      ],
      "min": [
        -0.125,
        0.0,
        -0.125
      ],
      "type": "VEC3"
    },
    {
      "bufferView": 2,
      "byteOffset": 2592,
      "componentType": 5126,
      "count": 24,
      "max": [
        1.0,
        1.0,
        1.0
      ],
      "min": [
        -1.0,
        -1.0,
        -1.0
      ],
      "type": "VEC3"
    },
    {
      "bufferView": 1,
      "byteOffset": 768,
      "componentType": 5126,
      "count": 24,
      "max": [
        0.1875,
        0.765625
      ],
      "min": [
        0.0,
        0.625
      ],
      "type": "VEC2"
    },
    {
      "bufferView": 0,
      "byteOffset": 576,
      "componentType": 5125,
      "count": 36,
      "type": "SCALAR"
    },
    {
      "bufferView": 2,
      "byteOffset": 2880,
      "componentType": 5126,
      "count": 24,
      "max": [
        0.0625,
        0.5625,
        0.0
      ],
      "min": [
        -0.125,
        0.25,
        -0.1875
      ],
      "type": "VEC3"
    },
    {
      "bufferView": 2,
      "byteOffset": 3168,
      "componentType": 5126,
      "count": 24,
      "max": [
        1.0,
        1.0,
        1.0
      ],
      "min": [
        -1.0,
        -1.0,
        -1.0
      ],
      "type": "VEC3"
    },
    {
      "bufferView": 1,
      "byteOffset": 960,
      "componentType": 5126,
      "count": 24,
      "max": [
        0.796875,
        0.453125
      ],
      "min": [
        0.609375,
        0.28125
      ],
      "type": "VEC2"
    },
    {
      "bufferView": 0,
      "byteOffset": 720,
      "componentType": 5125,
      "count": 36,
      "type": "SCALAR"
    },
    {
      "bufferView": 2,
      "byteOffset": 3456,
      "componentType": 5126,
      "count": 24,
      "max": [
        0.1875,
        0.375,
        0.3125
      ],
      "min": [
        -0.25,
        0.0,
        -0.0625
      ],
      "type": "VEC3"
    },
    {
      "bufferView": 2,
      "byteOffset": 3744,
      "componentType": 5126,
      "count": 24,
      "max": [
        1.0,
        1.0,
        1.0
      ],
      "min": [
        -1.0,
        -1.0,
        -1.0
      ],
      "type": "VEC3"
    },
    {
      "bufferView": 1,
      "byteOffset": 1152,
      "componentType": 5126,
      "count": 24,
      "max": [
        1.0,
        0.375
      ],
      "min": [
        0.59375,
        0.09375
      ],
      "type": "VEC2"
    },
    {
      "bufferView": 0,
      "byteOffset": 864,
      "componentType": 5125,
      "count": 36,
      "type": "SCALAR"
    },
    {
      "bufferView": 2,
      "byteOffset": 4032,
      "componentType": 5126,
      "count": 24,
      "max": [
        0.0625,
        0.1875,
        0.125
      ],
      "min": [
        -0.125,
        0.0,
        -0.0625
      ],
      "type": "VEC3"
    },
    {
      "bufferView": 2,
      "byteOffset": 4320,
      "componentType": 5126,
      "count": 24,
      "max": [
        1.0,
        1.0,
        1.0
      ],
      "min": [
        -1.0,
        -1.0,
        -1.0
      ],
      "type": "VEC3"
    },
    {
      "bufferView": 1,
      "byteOffset": 1344,
      "componentType": 5126,
      "count": 24,
      "max": [
        1.0,
        0.140625
      ],
      "min": [
        0.8125,
        0.0
      ],
      "type": "VEC2"
    },
    {
      "bufferView": 0,
      "byteOffset": 1008,
      "componentType": 5125,
      "count": 36,
      "type": "SCALAR"
    },
    {
      "bufferView": 2,
      "byteOffset": 4608,
      "componentType": 5126,
      "count": 24,
      "max": [
        0.07500000298023224,
        0.20000000298023224,
        0.13750000298023224
      ],
      "min": [
        -0.13750000298023224,
        -0.012500000186264515,
        -0.07500000298023224
      ],
      "type": "VEC3"
    },
    {
      "bufferView": 2,
      "byteOffset": 4896,
      "componentType": 5126,
      "count": 24,
      "max": [
        1.0,
        1.0,
        1.0
      ],
      "min": [
        -1.0,
        -1.0,
        -1.0
      ],
      "type": "VEC3"
    },
    {
      "bufferView": 1,
      "byteOffset": 1536,
      "componentType": 5126,
      "count": 24,
      "max": [
        1.0,
        0.515625
      ],
      "min": [
        0.8125,
        0.375
      ],
      "type": "VEC2"
    },
    {
      "bufferView": 0,
      "byteOffset": 1152,
      "componentType": 5125,
      "count": 36,
      "type": "SCALAR"
    },
    {
      "bufferView": 2,
      "byteOffset": 5184,
      "componentType": 5126,
      "count": 24,
      "max": [
        0.0625,
        0.25,
        0.125
      ],
      "min": [
        -0.6875,
        0.0,
        -0.125
      ],
      "type": "VEC3"
    },
    {
      "bufferView": 2,
      "byteOffset": 5472,
      "componentType": 5126,
      "count": 24,
      "max": [
        1.0,
        1.0,
        1.0
      ],
      "min": [
        -1.0,
        -1.0,
        -1.0
      ],
      "type": "VEC3"
    },
    {
      "bufferView": 1,
      "byteOffset": 1728,
      "componentType": 5126,
      "count": 24,
      "max": [
        0.625,
        0.625
      ],
      "min": [
        0.3125,
        0.375
      ],
      "type": "VEC2"
    },
    {
      "bufferView": 0,
      "byteOffset": 1296,
      "componentType": 5125,
      "count": 36,
      "type": "SCALAR"
    },
    {
      "bufferView": 3,
      "componentType": 5126,
      "count": 5,
      "max": [
        2.0
      ],
      "min": [
        0.0
      ],
      "type": "SCALAR"
    },
    {
      "bufferView": 5,
      "componentType": 5126,
      "count": 5,
      "max": [
        0.0,
        0.0,
        0.02181488461792469,
        1.0
      ],
      "min": [
        0.0,
        0.0,
        -0.02181488461792469,
        0.9997619986534119
      ],
      "type": "VEC4"
    },
    {
      "bufferView": 3,
      "byteOffset": 20,
      "componentType": 5126,
      "count": 3,
      "max": [
        2.0
      ],
      "min": [
        0.0
      ],
      "type": "SCALAR"
    },
    {
      "bufferView": 4,
      "componentType": 5126,
      "count": 3,
      "max": [
        -0.03125,
        0.3125,
        0.0
      ],
      "min": [
        -0.03125,
        0.25,
        0.0
      ],
      "type": "VEC3"
    },
    {
      "bufferView": 3,
      "byteOffset": 32,
      "componentType": 5126,
      "count": 5,
      "max": [
        2.0
      ],
      "min": [
        0.0
      ],
      "type": "SCALAR"
    },
    {
      "bufferView": 5,
      "byteOffset": 80,
      "componentType": 5126,
      "count": 5,
      "max": [
        0.02181488461792469,
        0.0,
        0.0,
        1.0
      ],
      "min": [
        -0.02181488461792469,
        0.0,
        0.0,
        0.9997619986534119
      ],
      "type": "VEC4"
    },
    {
      "bufferView": 3,
      "byteOffset": 52,
      "componentType": 5126,
      "count": 7,
      "max": [
        2.0
      ],
      "min": [
        0.0
      ],
      "type": "SCALAR"
    },
    {
      "bufferView": 5,
      "byteOffset": 160,
      "componentType": 5126,
      "count": 7,
      "max": [
        0.03830060735344887,
        0.0,
        0.0,
        0.9999904632568359
      ],
      "min": [
        -0.03202131763100624,
        0.0,
        0.0,
        0.9992662668228149
      ],
      "type": "VEC4"
    },
    {
      "bufferView": 3,
      "byteOffset": 80,
      "componentType": 5126,
      "count": 5,
      "max": [
        2.0
      ],
      "min": [
        0.0
      ],
      "type": "SCALAR"
    },
    {
      "bufferView": 5,
      "byteOffset": 272,
      "componentType": 5126,
      "count": 5,
      "max": [
        0.02181488461792469,
        0.0,
        0.0,
        1.0
      ],
      "min": [
        -0.02181488461792469,
        0.0,
        0.0,
        0.9997619986534119
      ],
      "type": "VEC4"
    },
    {
      "bufferView": 3,
      "byteOffset": 100,
      "componentType": 5126,
      "count": 5,
      "max": [
        2.0
      ],
      "min": [
        0.0
      ],
      "type": "SCALAR"
    },
    {
      "bufferView": 5,
      "byteOffset": 352,
      "componentType": 5126,
      "count": 5,
      "max": [
        0.004471030086278915,
        0.0015177102759480476,
        0.3823226988315582,
        0.9486554265022278
      ],
      "min": [
        0.0,
        0.0,
        0.31631138920783997,
        0.9240220785140991
      ],
      "type": "VEC4"
    },
    {
      "bufferView": 3,
      "byteOffset": 120,
      "componentType": 5126,
      "count": 5,
      "max": [
        2.0
      ],
      "min": [
        0.0
      ],
      "type": "SCALAR"
    },
    {
      "bufferView": 4,
      "byteOffset": 36,
      "componentType": 5126,
      "count": 5,
      "max": [
        -0.34375,
        0.65625,
        0.125
      ],
      "min": [
        -0.34375,
        0.609375,
        0.125
      ],
      "type": "VEC3"
    },
    {
      "bufferView": 3,
      "byteOffset": 140,
      "componentType": 5126,
      "count": 5,
      "max": [
        2.0
      ],
      "min": [
        0.0
      ],
      "type": "SCALAR"
    },
    {
      "bufferView": 5,
      "byteOffset": 432,
      "componentType": 5126,
      "count": 5,
      "max": [
        0.0,
        0.0,
        0.02181488461792469,
        1.0
      ],
      "min": [
        0.0,
        0.0,
        -0.02181488461792469,
        0.9997619986534119
      ],
      "type": "VEC4"
    },
    {
      "bufferView": 3,
      "byteOffset": 160,
      "componentType": 5126,
      "count": 3,
      "max": [
        2.0
      ],
      "min": [
        0.0
      ],
      "type": "SCALAR"
    },
    {
      "bufferView": 4,
      "byteOffset": 96,
      "componentType": 5126,
      "count": 3,
      "max": [
        -0.3125,
        -0.0625,
        0.125
      ],
      "min": [
        -0.3125,
        -0.125,
        0.125
      ],
      "type": "VEC3"
    },
    {
      "bufferView": 3,
      "byteOffset": 172,
      "componentType": 5126,
      "count": 5,
      "max": [
        2.0
      ],
      "min": [
        0.0
      ],
      "type": "SCALAR"
    },
    {
      "bufferView": 5,
      "byteOffset": 512,
      "componentType": 5126,
      "count": 5,
      "max": [
        0.0,
        0.0,
        0.02181488461792469,
        1.0
      ],
      "min": [
        0.0,
        0.0,
        -0.02181488461792469,
        0.9997619986534119
      ],
      "type": "VEC4"
    },
    {
      "bufferView": 3,
      "byteOffset": 192,
      "componentType": 5126,
      "count": 3,
      "max": [
        2.0
      ],
      "min": [
        0.0
      ],
      "type": "SCALAR"
    },
    {
      "bufferView": 4,
      "byteOffset": 132,
      "componentType": 5126,
      "count": 3,
      "max": [
        0.3125,
        -0.0625,
        0.125
      ],
      "min": [
        0.3125,
        -0.125,
        0.125
      ],
      "type": "VEC3"
    },
    {
      "bufferView": 3,
      "byteOffset": 204,
      "componentType": 5126,
      "count": 5,
      "max": [
        2.0
      ],
      "min": [
        0.0
      ],
      "type": "SCALAR"
    },
    {
      "bufferView": 5,
      "byteOffset": 592,
      "componentType": 5126,
      "count": 5,
      "max": [
        0.0,
        0.0,
        -0.3214394748210907,
        0.9469301104545593
      ],
      "min": [
        0.0,
        0.0,
        -0.40274667739868164,
        0.9153114557266235
      ],
      "type": "VEC4"
    },
    {
      "bufferView": 3,
      "byteOffset": 224,
      "componentType": 5126,
      "count": 5,
      "max": [
        2.0
      ],
      "min": [
        0.0
      ],
      "type": "SCALAR"
    },
    {
      "bufferView": 4,
      "byteOffset": 168,
      "componentType": 5126,
      "count": 5,
      "max": [
        0.34375,
        0.65625,
        0.125
      ],
      "min": [
        0.34375,
        0.59375,
        0.125
      ],
      "type": "VEC3"
    },
    {
      "bufferView": 3,
      "byteOffset": 244,
      "componentType": 5126,
      "count": 5,
      "max": [
        0.5
      ],
      "min": [
        0.0
      ],
      "type": "SCALAR"
    },
    {
      "bufferView": 5,
      "byteOffset": 672,
      "componentType": 5126,
      "count": 5,
      "max": [
        -0.09754516184329987,
        -0.15477555990219116,
        -0.49039262533187866,
        0.8493849635124207
      ],
      "min": [
        -0.11876346170902252,
        -0.16895318031311035,
        -0.5970642566680908,
        0.7781092524528503
      ],
      "type": "VEC4"
    },
    {
      "bufferView": 3,
      "byteOffset": 264,
      "componentType": 5126,
      "count": 5,
      "max": [
        0.5
      ],
      "min": [
        0.0
      ],
      "type": "SCALAR"
    },
    {
      "bufferView": 5,
      "byteOffset": 752,
      "componentType": 5126,
      "count": 5,
      "max": [
        0.06540312618017197,
        0.002852844540029764,
        0.04352599382400513,
        0.9978589415550232
      ],
      "min": [
        0.06534087657928467,
        -0.002852844540029764,
        -0.04352599382400513,
        0.9969092011451721
      ],
      "type": "VEC4"
    },
    {
      "bufferView": 3,
      "byteOffset": 284,
      "componentType": 5126,
      "count": 5,
      "max": [
        0.5
      ],
      "min": [
        0.0
      ],
      "type": "SCALAR"
    },
    {
      "bufferView": 5,
      "byteOffset": 832,
      "componentType": 5126,
      "count": 5,
      "max": [
        -0.09754516184329987,
        0.16895318031311035,
        0.5970642566680908,
        0.8493849635124207
      ],
      "min": [
        -0.11876346170902252,
        0.15477555990219116,
        0.49039262533187866,
        0.7781092524528503
      ],
      "type": "VEC4"
    },
    {
      "bufferView": 3,
      "byteOffset": 304,
      "componentType": 5126,
      "count": 5,
      "max": [
        0.5
      ],
      "min": [
        0.0
      ],
      "type": "SCALAR"
    },
    {
      "bufferView": 5,
      "byteOffset": 912,
      "componentType": 5126,
      "count": 5,
      "max": [
        0.3420201539993286,
        0.0,
        0.0,
        0.9978589415550232
      ],
      "min": [
        -0.44228869676589966,
        0.0,
        0.0,
        0.8968727588653564
      ],
      "type": "VEC4"
    },
    {
      "bufferView": 3,
      "byteOffset": 324,
      "componentType": 5126,
      "count": 5,
      "max": [
        0.5
      ],
      "min": [
        0.0
      ],
      "type": "SCALAR"
    },
    {
      "bufferView": 5,
      "byteOffset": 992,
      "componentType": 5126,
      "count": 5,
      "max": [
        0.3420201539993286,
        0.0,
        0.0,
        0.9978589415550232
      ],
      "min": [
        -0.44228869676589966,
        0.0,
        0.0,
        0.8968727588653564
      ],
      "type": "VEC4"
    },
    {
      "bufferView": 3,
      "byteOffset": 344,
      "componentType": 5126,
      "count": 5,
      "max": [
        0.5
      ],
      "min": [
        0.0
      ],
      "type": "SCALAR"
    },
    {
      "bufferView": 5,
      "byteOffset": 1072,
      "componentType": 5126,
      "count": 5,
      "max": [
        0.13052618503570557,
        0.0028474137652665377,
        0.04324621707201004,
        0.9914448857307434
      ],
      "min": [
        0.13040195405483246,
        -0.00569347245618701,
        -0.021628255024552345,
        0.9905012249946594
      ],
      "type": "VEC4"
    },
    {
      "bufferView": 3,
      "byteOffset": 364,
      "componentType": 5126,
      "count": 5,
      "max": [
        0.5
      ],
      "min": [
        0.0
      ],
      "type": "SCALAR"
    },
    {
      "bufferView": 4,
      "byteOffset": 228,
      "componentType": 5126,
      "count": 5,
      "max": [
        0.0625,
        0.75,
        0.15625
      ],
      "min": [
        -0.0625,
        0.75,
        0.15625
      ],
      "type": "VEC3"
    },
    {
      "bufferView": 3,
      "byteOffset": 384,
      "componentType": 5126,
      "count": 5,
      "max": [
        0.5
      ],
      "min": [
        0.0
      ],
      "type": "SCALAR"
    },
    {
      "bufferView": 5,
      "byteOffset": 1152,
      "componentType": 5126,
      "count": 5,
      "max": [
        0.13052618503570557,
        0.0028474137652665377,
        0.04324621707201004,
        0.9914448857307434
      ],
      "min": [
        0.13040195405483246,
        -0.00569347245618701,
        -0.021628255024552345,
        0.9905012249946594
      ],
      "type": "VEC4"
    },
    {
      "bufferView": 3,
      "byteOffset": 404,
      "componentType": 5126,
      "count": 5,
      "max": [
        0.5
      ],
      "min": [
        0.0
      ],
      "type": "SCALAR"
    },
    {
      "bufferView": 5,
      "byteOffset": 1232,
      "componentType": 5126,
      "count": 5,
      "max": [
        0.42656874656677246,
        0.0,
        0.039451777935028076,
        0.9588197469711304
      ],
      "min": [
        0.28401535749435425,
        -0.01860666647553444,
        0.0,
        0.9035943150520325
      ],
      "type": "VEC4"
    },
    {
      "bufferView": 3,
      "byteOffset": 424,
      "componentType": 5126,
      "count": 5,
      "max": [
        0.5
      ],
      "min": [
        0.0
      ],
      "type": "SCALAR"
    },
    {
      "bufferView": 4,
      "byteOffset": 288,
      "componentType": 5126,
      "count": 5,
      "max": [
        0.0625,
        0.375,
        0.0
      ],
      "min": [
        -0.0625,
        0.375,
        0.0
      ],
      "type": "VEC3"
    }
  ],
  "animations": [
    {
      "channels": [
        {
          "sampler": 0,
          "target": {
            "node": 4,
            "path": "rotation"
          }
        },
        {
          "sampler": 1,
          "target": {
            "node": 4,
            "path": "translation"
          }
        },
        {
          "sampler": 2,
          "target": {
            "node": 18,
            "path": "rotation"
          }
        },
        {
          "sampler": 3,
          "target": {
            "node": 24,
            "path": "rotation"
          }
        },
        {
          "sampler": 4,
          "target": {
            "node": 21,
            "path": "rotation"
          }
        },
        {
          "sampler": 5,
          "target": {
            "node": 9,
            "path": "rotation"
          }
        },
        {
          "sampler": 6,
          "target": {
            "node": 9,
            "path": "translation"
          }
        },
        {
          "sampler": 7,
          "target": {
            "node": 12,
            "path": "rotation"
          }
        },
        {
          "sampler": 8,
          "target": {
            "node": 12,
            "path": "translation"
          }
        },
        {
          "sampler": 9,
          "target": {
            "node": 15,
            "path": "rotation"
          }
        },
        {
          "sampler": 10,
          "target": {
            "node": 15,
            "path": "translation"
          }
        },
        {
          "sampler": 11,
          "target": {
            "node": 29,
            "path": "rotation"
          }
        },
        {
          "sampler": 12,
          "target": {
            "node": 29,
            "path": "translation"
          }
        }
      ],
      "name": "idle",
      "samplers": [
        {
          "input": 40,
          "interpolation": "LINEAR",
          "output": 41
        },
        {
          "input": 42,
          "interpolation": "LINEAR",
          "output": 43
        },
        {
          "input": 44,
          "interpolation": "LINEAR",
          "output": 45
        },
        {
          "input": 46,
          "interpolation": "LINEAR",
          "output": 47
        },
        {
          "input": 48,
          "interpolation": "LINEAR",
          "output": 49
        },
        {
          "input": 50,
          "interpolation": "LINEAR",
          "output": 51
        },
        {
          "input": 52,
          "interpolation": "LINEAR",
          "output": 53
        },
        {
          "input": 54,
          "interpolation": "LINEAR",
          "output": 55
        },
        {
          "input": 56,
          "interpolation": "LINEAR",
          "output": 57
        },
        {
          "input": 58,
          "interpolation": "LINEAR",
          "output": 59
        },
        {
          "input": 60,
          "interpolation": "LINEAR",
          "output": 61
        },
        {
          "input": 62,
          "interpolation": "LINEAR",
          "output": 63
        },
        {
          "input": 64,
          "interpolation": "LINEAR",
          "output": 65
        }
      ]
    },
    {
      "channels": [
        {
          "sampler": 0,
          "target": {
            "node": 29,
            "path": "rotation"
          }
        },
        {
          "sampler": 1,
          "target": {
            "node": 4,
            "path": "rotation"
          }
        },
        {
          "sampler": 2,
          "target": {
            "node": 9,
            "path": "rotation"
          }
        },
        {
          "sampler": 3,
          "target": {
            "node": 12,
            "path": "rotation"
          }
        },
        {
          "sampler": 4,
          "target": {
            "node": 15,
            "path": "rotation"
          }
        },
        {
          "sampler": 5,
          "target": {
            "node": 18,
            "path": "rotation"
          }
        },
        {
          "sampler": 6,
          "target": {
            "node": 18,
            "path": "translation"
          }
        },
        {
          "sampler": 7,
          "target": {
            "node": 21,
            "path": "rotation"
          }
        },
        {
          "sampler": 8,
          "target": {
            "node": 24,
            "path": "rotation"
          }
        },
        {
          "sampler": 9,
          "target": {
            "node": 24,
            "path": "translation"
          }
        }
      ],
      "name": "walk",
      "samplers": [
        {
          "input": 66,
          "interpolation": "LINEAR",
          "output": 67
        },
        {
          "input": 68,
          "interpolation": "LINEAR",
          "output": 69
        },
        {
          "input": 70,
          "interpolation": "LINEAR",
          "output": 71
        },
        {
          "input": 72,
          "interpolation": "LINEAR",
          "output": 73
        },
        {
          "input": 74,
          "interpolation": "LINEAR",
          "output": 75
        },
        {
          "input": 76,
          "interpolation": "LINEAR",
          "output": 77
        },
        {
          "input": 78,
          "interpolation": "LINEAR",
          "output": 79
        },
        {
          "input": 80,
          "interpolation": "LINEAR",
          "output": 81
        },
        {
          "input": 82,
          "interpolation": "LINEAR",
          "output": 83
        },
        {
          "input": 84,
          "interpolation": "LINEAR",
          "output": 85
        }
      ]
    }
  ],
  "asset": {
    "extras": {
      "author": "Chikygames (https://sketchfab.com/Chikygames)",
      "license": "CC-BY-4.0 (http://creativecommons.org/licenses/by/4.0/)",
      "source": "https://sketchfab.com/3d-models/minecraft-doey-the-doughman-ab81cb07eee84702b678dcfeeba4257b",
      "title": "Minecraft Doey the doughman"
    },
    "generator": "Sketchfab-16.60.0",
    "version": "2.0"
  },
  "bufferViews": [
    {
      "buffer": 0,
      "byteLength": 1440,
      "name": "floatBufferViews",
      "target": 34963
    },
    {
      "buffer": 0,
      "byteLength": 1920,
      "byteOffset": 1440,
      "byteStride": 8,
      "name": "floatBufferViews",
      "target": 34962
    },
    {
      "buffer": 0,
      "byteLength": 5760,
      "byteOffset": 3360,
      "byteStride": 12,
      "name": "floatBufferViews",
      "target": 34962
    },
    {
      "buffer": 0,
      "byteLength": 444,
      "byteOffset": 9120,
      "name": "floatBufferViews"
    },
    {
      "buffer": 0,
      "byteLength": 348,
      "byteOffset": 9564,
      "byteStride": 12,
      "name": "floatBufferViews"
    },
    {
      "buffer": 0,
      "byteLength": 1312,
      "byteOffset": 9912,
      "byteStride": 16,
      "name": "floatBufferViews"
    }
  ],
  "buffers": [
    {
      "byteLength": 11224,
      "uri": "scene.bin"
    }
  ],
  "extensionsUsed": [
    "KHR_materials_specular"
  ],
  "images": [
    {
      "uri": "textures/material_0_baseColor.png"
    }
  ],
  "materials": [
    {
      "alphaCutoff": 0.05,
      "alphaMode": "MASK",
      "doubleSided": true,
      "extensions": {
        "KHR_materials_specular": {
          "specularColorFactor": [
            1.0,
            1.0,
            1.0
          ],
          "specularFactor": 1.0
        }
      },
      "name": "material_0",
      "pbrMetallicRoughness": {
        "baseColorTexture": {
          "index": 0
        },
        "metallicFactor": 0.0
      }
    }
  ],
  "meshes": [
    {
      "name": "Object_0",
      "primitives": [
        {
          "attributes": {
            "NORMAL": 1,
            "POSITION": 0,
            "TEXCOORD_0": 2
          },
          "indices": 3,
          "material": 0,
          "mode": 4
        }
      ]
    },
    {
      "name": "Object_1",
      "primitives": [
        {
          "attributes": {
            "NORMAL": 5,
            "POSITION": 4,
            "TEXCOORD_0": 6
          },
          "indices": 7,
          "material": 0,
          "mode": 4
        }
      ]
    },
    {
      "name": "Object_2",
      "primitives": [
        {
          "attributes": {
            "NORMAL": 9,
            "POSITION": 8,
            "TEXCOORD_0": 10
          },
          "indices": 11,
          "material": 0,
          "mode": 4
        }
      ]
    },
    {
      "name": "Object_3",
      "primitives": [
        {
          "attributes": {
            "NORMAL": 13,
            "POSITION": 12,
            "TEXCOORD_0": 14
          },
          "indices": 15,
          "material": 0,
          "mode": 4
        }
      ]
    },
    {
      "name": "Object_4",
      "primitives": [
        {
          "attributes": {
            "NORMAL": 17,
            "POSITION": 16,
            "TEXCOORD_0": 18
          },
          "indices": 19,
          "material": 0,
          "mode": 4
        }
      ]
    },
    {
      "name": "Object_5",
      "primitives": [
        {
          "attributes": {
            "NORMAL": 21,
            "POSITION": 20,
            "TEXCOORD_0": 22
          },
          "indices": 23,
          "material": 0,
          "mode": 4
        }
      ]
    },
    {
      "name": "Object_6",
      "primitives": [
        {
          "attributes": {
            "NORMAL": 25,
            "POSITION": 24,
            "TEXCOORD_0": 26
          },
          "indices": 27,
          "material": 0,
          "mode": 4
        }
      ]
    },
    {
      "name": "Object_7",
      "primitives": [
        {
          "attributes": {
            "NORMAL": 29,
            "POSITION": 28,
            "TEXCOORD_0": 30
          },
          "indices": 31,
          "material": 0,
          "mode": 4
        }
      ]
    },
    {
      "name": "Object_8",
      "primitives": [
        {
          "attributes": {
            "NORMAL": 33,
            "POSITION": 32,
            "TEXCOORD_0": 34
          },
          "indices": 35,
          "material": 0,
          "mode": 4
        }
      ]
    },
    {
      "name": "Object_9",
      "primitives": [
        {
          "attributes": {
            "NORMAL": 37,
            "POSITION": 36,
            "TEXCOORD_0": 38
          },
          "indices": 39,
          "material": 0,
          "mode": 4
        }
      ]
    }
  ],
  "nodes": [
    {
      "children": [
        1
      ],
      "matrix": [
        1.683987021446228,
        -7.930311847943207e-06,
        -2.708075234784494e-16,
        0.0,
        -2.7080449221467686e-16,
        6.447272658522074e-16,
        -1.683987021446228,
        0.0,
        7.930311847943207e-06,
        1.683987021446228,
        6.447259954713961e-16,
        0.0,
        0.0,
        0.0,
        0.0,
        1.0
      ],
      "name": "Sketchfab_model"
    },
    {
      "children": [
        2
      ],
      "name": "root"
    },
    {
      "children": [
        3
      ],
      "matrix": [
        1.0,
        0.0,
        0.0,
        0.0,
        0.0,
        2.220446049250313e-16,
        1.0,
        0.0,
        0.0,
        -1.0,
        2.220446049250313e-16,
        0.0,
        0.0,
        0.0,
        0.0,
        1.0
      ],
      "name": "GLTF_SceneRootNode"
    },
    {
      "children": [
        4
      ],
      "name": "_18"
    },
    {
      "children": [
        5,
        7,
        9,
        12,
        15,
        18,
        29
      ],
      "name": "bone_17",
      "translation": [
        -0.03125,
        0.3125,
        0.0
      ]
    },
    {
      "children": [
        6
      ],
      "matrix": [
        1.0,
        0.0,
        0.0,
        0.0,
        0.0,
        1.0,
        0.0,
        0.0,
        0.0,
        0.0,
        1.0,
        0.0,
        0.03125,
        0.3125,
        0.0,
        1.0
      ],
      "name": "cube_0"
    },
    {
      "mesh": 0,
      "name": "Object_6"
    },
    {
      "children": [
        8
      ],
      "matrix": [
        1.0,
        0.0,
        0.0,
        0.0,
        0.0,
        1.0,
        0.0,
        0.0,
        0.0,
        0.0,
        1.0,
        0.0,
        0.03125,
        -0.125,
        -0.0625,
        1.0
      ],
      "name": "cube_1"
    },
    {
      "mesh": 1,
      "name": "Object_8"
    },
    {
      "children": [
        10
      ],
      "name": "bone7_3",
      "translation": [
        -0.34375,
        0.625,
        0.125
      ]
    },
    {
      "children": [
        11
      ],
      "matrix": [
        1.0,
        0.0,
        0.0,
        0.0,
        0.0,
        1.0,
        0.0,
        0.0,
        0.0,
        0.0,
        1.0,
        0.0,
        -0.0625,
        -0.125,
        0.0,
        1.0
      ],
      "name": "cube_2"
    },
    {
      "mesh": 2,
      "name": "Object_11"
    },
    {
      "children": [
        13
      ],
      "name": "bone3_5",
      "translation": [
        -0.3125,
        -0.125,
        0.125
      ]
    },
    {
      "children": [
        14
      ],
      "matrix": [
        1.0,
        0.0,
        0.0,
        0.0,
        0.0,
        1.0,
        0.0,
        0.0,
        0.0,
        0.0,
        1.0,
        0.0,
        0.03125,
        -0.1875,
        0.0,
        1.0
      ],
      "name": "cube_4"
    },
    {
      "mesh": 3,
      "name": "Object_14"
    },
    {
      "children": [
        16
      ],
      "name": "bone2_7",
      "translation": [
        0.3125,
        -0.125,
        0.125
      ]
    },
    {
      "children": [
        17
      ],
      "matrix": [
        1.0,
        0.0,
        0.0,
        0.0,
        0.0,
        1.0,
        0.0,
        0.0,
        0.0,
        0.0,
        1.0,
        0.0,
        0.03125,
        -0.1875,
        0.0,
        1.0
      ],
      "name": "cube_6"
    },
    {
      "mesh": 4,
      "name": "Object_17"
    },
    {
      "children": [
        19,
        21
      ],
      "name": "bone4_14",
      "translation": [
        0.0,
        0.75,
        0.15625
      ]
    },
    {
      "children": [
        20
      ],
      "matrix": [
        1.0,
        0.0,
        0.0,
        0.0,
        0.0,
        1.0,
        0.0,
        0.0,
        0.0,
        0.0,
        1.0,
        0.0,
        0.03125,
        -0.25,
        0.09375,
        1.0
      ],
      "name": "cube_8"
    },
    {
      "mesh": 5,
      "name": "Object_20"
    },
    {
      "children": [
        22,
        24
      ],
      "name": "bone5_13",
      "translation": [
        0.0,
        0.3125,
        0.0
      ]
    },
    {
      "children": [
        23
      ],
      "matrix": [
        1.0,
        0.0,
        0.0,
        0.0,
        0.0,
        1.0,
        0.0,
        0.0,
        0.0,
        0.0,
        1.0,
        0.0,
        0.03125,
        0.0,
        -0.15625,
        1.0
      ],
      "name": "cube_9"
    },
    {
      "mesh": 6,
      "name": "Object_23"
    },
    {
      "children": [
        25,
        27
      ],
      "name": "bone8_12",
      "rotation": [
        0.004363309592008591,
        0.0,
        0.0,
        0.9999905824661255
      ],
      "translation": [
        0.0,
        0.375,
        0.0
      ]
    },
    {
      "children": [
        26
      ],
      "matrix": [
        1.0,
        0.0,
        0.0,
        0.0,
        0.0,
        1.0,
        0.0,
        0.0,
        0.0,
        0.0,
        1.0,
        0.0,
        0.03125,
        0.0,
        -0.03125,
        1.0
      ],
      "name": "cube_10"
    },
    {
      "mesh": 7,
      "name": "Object_26"
    },
    {
      "children": [
        28
      ],
      "matrix": [
        1.0,
        0.0,
        0.0,
        0.0,
        0.0,
        1.0,
        0.0,
        0.0,
        0.0,
        0.0,
        1.0,
        0.0,
        0.03125,
        0.0,
        -0.03125,
        1.0
      ],
      "name": "cube_11"
    },
    {
      "mesh": 8,
      "name": "Object_28"
    },
    {
      "children": [
        30
      ],
      "name": "bone6_16",
      "translation": [
        0.34375,
        0.625,
        0.125
      ]
    },
    {
      "children": [
        31
      ],
      "matrix": [
        -1.0,
        -1.2246468525851679e-16,
        -0.0,
        0.0,
        1.2246468525851679e-16,
        -1.0,
        0.0,
        0.0,
        0.0,
        0.0,
        1.0,
        0.0,
        0.0625,
        0.125,
        0.0,
        1.0
      ],
      "name": "cube_15"
    },
    {
      "mesh": 9,
      "name": "Object_31"
    }
  ],
  "samplers": [
    {
      "magFilter": 9728,
      "minFilter": 9728,
      "wrapS": 33071,
      "wrapT": 33071
    }
  ],
  "scene": 0,
  "scenes": [
    {
      "name": "Sketchfab_Scene",
      "nodes": [
        0
      ]
    }
  ],
  "textures": [
    {
      "sampler": 0,
      "source": 0
    }
  ]
}
