{
  "accessors": [
    {
      "bufferView": 2,
      "componentType": 5126,
      "count": 2259,
      "max": [
        1.861204981803894,
        0.9448950290679932,
        16.869773864746094
      ],
      "min": [
        -1.904634952545166,
        -2.6064860820770264,
        13.481819152832031
      ],
      "type": "VEC3"
    },
    {
      "bufferView": 2,
      "byteOffset": 27108,
      "componentType": 5126,
      "count": 2259,
      "max": [
        0.9984143972396851,
        0.9965744018554688,
        0.9961745142936707
      ],
      "min": [
        -0.9995383620262146,
        -0.9997982382774353,
        -0.9998471140861511
      ],
      "type": "VEC3"
    },
    {
      "bufferView": 1,
      "componentType": 5126,
      "count": 2259,
      "max": [
        0.9499369859695435,
        0.9556139707565308
      ],
      "min": [
        0.05150600150227547,
        0.06877899914979935
      ],
      "type": "VEC2"
    },
    {
      "bufferView": 0,
      "componentType": 5125,
      "count": 2259,
      "type": "SCALAR"
    },
    {
      "bufferView": 2,
      "byteOffset": 54216,
      "componentType": 5126,
      "count": 6949,
      "max": [
        7.106411933898926,
        7.710483074188232,
        15.173095703125
      ],
      "min": [
        -4.437382221221924,
        -5.164890766143799,
        -0.41691601276397705
      ],
      "type": "VEC3"
    },
    {
      "bufferView": 2,
      "byteOffset": 137604,
      "componentType": 5126,
      "count": 6949,
      "max": [
        0.999684751033783,
        0.9996643662452698,
        0.9999916553497314
      ],
      "min": [
        -0.9999175071716309,
        -0.998989999294281,
        -0.9992380738258362
      ],
      "type": "VEC3"
    },
    {
      "bufferView": 1,
      "byteOffset": 18072,
      "componentType": 5126,
      "count": 6949,
      "max": [
        0.996616005897522,
        0.9975569844245911
      ],
      "min": [
        0.005477000027894974,
        0.004751000087708235
      ],
      "type": "VEC2"
    },
    {
      "bufferView": 0,
      "byteOffset": 9036,
      "componentType": 5125,
      "count": 6957,
      "type": "SCALAR"
    }
  ],
  "asset": {
    "extras": {
      "author": "xdanni1984x (https://sketchfab.com/xdanni1984x)",
      "license": "CC-BY-4.0 (http://creativecommons.org/licenses/by/4.0/)",
      "source": "https://sketchfab.com/3d-models/wreck-it-ralph-e8fc5c530aee408988eacfc004fad0bd",
      "title": "Wreck It Ralph"
    },
    "generator": "Sketchfab-16.60.0",
    "version": "2.0"
  },
  "bufferViews": [
    {
      "buffer": 0,
      "byteLength": 36864,
      "name": "floatBufferViews",
      "target": 34963
    },
    {
      "buffer": 0,
      "byteLength": 73664,
      "byteOffset": 36864,
      "byteStride": 8,
      "name": "floatBufferViews",
      "target": 34962
    },
    {
      "buffer": 0,
      "byteLength": 220992,
      "byteOffset": 110528,
      "byteStride": 12,
      "name": "floatBufferViews",
      "target": 34962
    }
  ],
  "buffers": [
    {
      "byteLength": 331520,
      "uri": "scene.bin"
    }
  ],
  "images": [
    {
      "uri": "textures/Material.003_baseColor.png"
    },
    {
      "uri": "textures/Material.004_baseColor.png"
    }
  ],
  "materials": [
    {
      "doubleSided": true,
      "name": "Material.003",
      "pbrMetallicRoughness": {
        "baseColorTexture": {
          "index": 0
        },
        "metallicFactor": 0.0,
        "roughnessFactor": 0.8011823178082373
      }
    },
    {
      "doubleSided": true,
      "name": "Material.004",
      "pbrMetallicRoughness": {
        "baseColorTexture": {
          "index": 1
        },
        "metallicFactor": 0.0,
        "roughnessFactor": 0.8011823178082373
      }
    }
  ],
  "meshes": [
    {
      "name": "Object_0",
      "primitives": [
        {
          "attributes": {
            "NORMAL": 1,
            "POSITION": 0,
            "TEXCOORD_0": 2
          },
          "indices": 3,
          "material": 0,
          "mode": 4
        }
      ]
    },
    {
      "name": "Object_1",
      "primitives": [
        {
          "attributes": {
            "NORMAL": 5,
            "POSITION": 4,
            "TEXCOORD_0": 6
          },
          "indices": 7,
          "material": 1,
          "mode": 4
        }
      ]
    }
  ],
  "nodes": [
    {
      "children": [
        1
      ],
      "matrix": [
        1.0,
        0.0,
        0.0,
        0.0,
        0.0,
        2.220446049250313e-16,
        -1.0,
        0.0,
        0.0,
        1.0,
        2.220446049250313e-16,
        0.0,
        0.0,
        0.0,
        0.0,
        1.0
      ],
      "name": "Sketchfab_model"
    },
    {
      "children": [
        2,
        3
      ],
      "name": "Wreck It Ralph.obj.cleaner.materialmerger.gles"
    },
    {
      "mesh": 0,
      "name": "Object_2"
    },
    {
      "mesh": 1,
      "name": "Object_3"
    }
  ],
  "samplers": [
    {
      "magFilter": 9729,
      "minFilter": 9987,
      "wrapS": 10497,
      "wrapT": 10497
    }
  ],
  "scene": 0,
  "scenes": [
    {
      "name": "Sketchfab_Scene",
      "nodes": [
        0
      ]
    }
  ],
  "textures": [
    {
      "sampler": 0,
      "source": 0
    },
    {
      "sampler": 0,
      "source": 1
    }
  ]
}
