{
  "accessors": [
    {
      "bufferView": 2,
      "componentType": 5126,
      "count": 240,
      "max": [
        0.13018114864826202,
        1.6879911422729492,
        -0.027295874431729317
      ],
      "min": [
        -0.13018114864826202,
        0.8721604943275452,
        -1.2574875354766846
      ],
      "type": "VEC3"
    },
    {
      "bufferView": 2,
      "byteOffset": 2880,
      "componentType": 5126,
      "count": 240,
      "max": [
        1.0,
        0.999894380569458,
        0.8880020976066589
      ],
      "min": [
        -1.0,
        -0.9995599389076233,
        -0.9963911175727844
      ],
      "type": "VEC3"
    },
    {
      "bufferView": 3,
      "componentType": 5126,
      "count": 240,
      "max": [
        1.0,
        0.8880020380020142,
        0.9995599389076233,
        1.0
      ],
      "min": [
        -1.0,
        -0.9995205998420715,
        -0.9998943209648132,
        1.0
      ],
      "type": "VEC4"
    },
    {
      "bufferView": 1,
      "componentType": 5126,
      "count": 240,
      "max": [
        0.9994497299194336,
        0.9748649001121521
      ],
      "min": [
        0.0005501783452928066,
        0.14276644587516785
      ],
      "type": "VEC2"
    },
    {
      "bufferView": 0,
      "componentType": 5125,
      "count": 630,
      "type": "SCALAR"
    },
    {
      "bufferView": 2,
      "byteOffset": 5760,
      "componentType": 5126,
      "count": 44,
      "max": [
        0.07694422453641891,
        1.1326669454574585,
        -0.018322885036468506
      ],
      "min": [
        -0.07694422453641891,
        0.7352597713470459,
        -0.4257432520389557
      ],
      "type": "VEC3"
    },
    {
      "bufferView": 2,
      "byteOffset": 6288,
      "componentType": 5126,
      "count": 44,
      "max": [
        0.998384416103363,
        0.35203635692596436,
        0.050457410514354706
      ],
      "min": [
        -0.998384416103363,
        -0.9999063611030579,
        -0.9988076686859131
      ],
      "type": "VEC3"
    },
    {
      "bufferView": 3,
      "byteOffset": 3840,
      "componentType": 5126,
      "count": 44,
      "max": [
        0.4277348518371582,
        4.3261070459266193e-07,
        0.2780495584011078,
        1.0
      ],
      "min": [
        -1.0,
        -0.9988076686859131,
        -0.3965425193309784,
        1.0
      ],
      "type": "VEC4"
    },
    {
      "bufferView": 1,
      "byteOffset": 1920,
      "componentType": 5126,
      "count": 44,
      "max": [
        0.9554704427719116,
        0.8729164004325867
      ],
      "min": [
        0.5113300085067749,
        0.0005501783452928066
      ],
      "type": "VEC2"
    },
    {
      "bufferView": 0,
      "byteOffset": 2520,
      "componentType": 5125,
      "count": 108,
      "type": "SCALAR"
    },
    {
      "bufferView": 2,
      "byteOffset": 6816,
      "componentType": 5126,
      "count": 121,
      "max": [
        0.31162795424461365,
        0.8748629093170166,
        0.6598786115646362
      ],
      "min": [
        -0.31164252758026123,
        -2.102874755859375,
        0.036608099937438965
      ],
      "type": "VEC3"
    },
    {
      "bufferView": 2,
      "byteOffset": 8268,
      "componentType": 5126,
      "count": 121,
      "max": [
        0.965925931930542,
        1.5703930955623946e-07,
        0.965925931930542
      ],
      "min": [
        -0.9659260511398315,
        -1.0,
        -0.9659258723258972
      ],
      "type": "VEC3"
    },
    {
      "bufferView": 1,
      "byteOffset": 2272,
      "componentType": 5126,
      "count": 121,
      "max": [
        0.9992729425430298,
        0.5207339525222778
      ],
      "min": [
        3.337860107421875e-06,
        2.372264862060547e-05
      ],
      "type": "VEC2"
    },
    {
      "bufferView": 0,
      "byteOffset": 2952,
      "componentType": 5125,
      "count": 324,
      "type": "SCALAR"
    },
    {
      "bufferView": 2,
      "byteOffset": 9720,
      "componentType": 5126,
      "count": 1014,
      "max": [
        0.32497721910476685,
        0.4138089716434479,
        0.6732279062271118
      ],
      "min": [
        -0.32499179244041443,
        -2.1669108867645264,
        0.023258835077285767
      ],
      "type": "VEC3"
    },
    {
      "bufferView": 2,
      "byteOffset": 21888,
      "componentType": 5126,
      "count": 1014,
      "max": [
        0.9659261107444763,
        1.0,
        0.965926468372345
      ],
      "min": [
        -0.9659259915351868,
        -1.0,
        -0.9659262895584106
      ],
      "type": "VEC3"
    },
    {
      "bufferView": 3,
      "byteOffset": 4544,
      "componentType": 5126,
      "count": 1014,
      "max": [
        0.9999076128005981,
        1.0,
        0.9951292872428894,
        1.0
      ],
      "min": [
        -0.99636310338974,
        -1.0,
        -0.9999950528144836,
        1.0
      ],
      "type": "VEC4"
    },
    {
      "bufferView": 1,
      "byteOffset": 3240,
      "componentType": 5126,
      "count": 1014,
      "max": [
        0.9973733425140381,
        0.9234177470207214
      ],
      "min": [
        0.0005501783452928066,
        0.033249400556087494
      ],
      "type": "VEC2"
    },
    {
      "bufferView": 0,
      "byteOffset": 4248,
      "componentType": 5125,
      "count": 3456,
      "type": "SCALAR"
    },
    {
      "bufferView": 2,
      "byteOffset": 34056,
      "componentType": 5126,
      "count": 358,
      "max": [
        0.3687400817871094,
        0.1320071816444397,
        1.8821032047271729
      ],
      "min": [
        -0.3687402009963989,
        -0.7208420038223267,
        0.5676159858703613
      ],
      "type": "VEC3"
    },
    {
      "bufferView": 2,
      "byteOffset": 38352,
      "componentType": 5126,
      "count": 358,
      "max": [
        1.0,
        1.0,
        1.0
      ],
      "min": [
        -1.0,
        -1.0,
        -1.0
      ],
      "type": "VEC3"
    },
    {
      "bufferView": 3,
      "byteOffset": 20768,
      "componentType": 5126,
      "count": 358,
      "max": [
        1.0,
        0.954507052898407,
        0.9995710849761963,
        1.0
      ],
      "min": [
        -0.9998481869697571,
        -0.9999964237213135,
        -0.9752564430236816,
        1.0
      ],
      "type": "VEC4"
    },
    {
      "bufferView": 1,
      "byteOffset": 11352,
      "componentType": 5126,
      "count": 358,
      "max": [
        0.975028395652771,
        0.7425252199172974
      ],
      "min": [
        0.0005501783452928066,
        0.0005501783452928066
      ],
      "type": "VEC2"
    },
    {
      "bufferView": 0,
      "byteOffset": 18072,
      "componentType": 5125,
      "count": 780,
      "type": "SCALAR"
    },
    {
      "bufferView": 2,
      "byteOffset": 42648,
      "componentType": 5126,
      "count": 438,
      "max": [
        0.396126925945282,
        -0.21696816384792328,
        1.5301729440689087
      ],
      "min": [
        -0.396126925945282,
        -0.37731391191482544,
        0.8889955878257751
      ],
      "type": "VEC3"
    },
    {
      "bufferView": 2,
      "byteOffset": 47904,
      "componentType": 5126,
      "count": 438,
      "max": [
        0.9999985694885254,
        1.0,
        0.9999983310699463
      ],
      "min": [
        -0.9999985694885254,
        -1.0,
        -0.9999982714653015
      ],
      "type": "VEC3"
    },
    {
      "bufferView": 1,
      "byteOffset": 14216,
      "componentType": 5126,
      "count": 438,
      "max": [
        0.9506727457046509,
        0.9504043459892273
      ],
      "min": [
        0.052510399371385574,
        0.7992565631866455
      ],
      "type": "VEC2"
    },
    {
      "bufferView": 0,
      "byteOffset": 21192,
      "componentType": 5125,
      "count": 1296,
      "type": "SCALAR"
    },
    {
      "bufferView": 2,
      "byteOffset": 53160,
      "componentType": 5126,
      "count": 169,
      "max": [
        0.12142519652843475,
        1.453954815864563,
        0.820580005645752
      ],
      "min": [
        -0.12142521888017654,
        1.076856017112732,
        0.6988691091537476
      ],
      "type": "VEC3"
    },
    {
      "bufferView": 2,
      "byteOffset": 55188,
      "componentType": 5126,
      "count": 169,
      "max": [
        0.9911699295043945,
        1.0,
        1.0
      ],
      "min": [
        -0.9911699295043945,
        -1.0,
        -0.3982056975364685
      ],
      "type": "VEC3"
    },
    {
      "bufferView": 3,
      "byteOffset": 26496,
      "componentType": 5126,
      "count": 169,
      "max": [
        0.834531307220459,
        0.9999999403953552,
        0.11268135905265808,
        1.0
      ],
      "min": [
        -1.0,
        -1.0,
        -1.0,
        1.0
      ],
      "type": "VEC4"
    },
    {
      "bufferView": 1,
      "byteOffset": 17720,
      "componentType": 5126,
      "count": 169,
      "max": [
        0.8272510170936584,
        0.9616613388061523
      ],
      "min": [
        0.3523635268211365,
        0.0005501783452928066
      ],
      "type": "VEC2"
    },
    {
      "bufferView": 0,
      "byteOffset": 26376,
      "componentType": 5125,
      "count": 363,
      "type": "SCALAR"
    }
  ],
  "asset": {
    "extras": {
      "author": "Memorie (https://sketchfab.com/Memorie)",
      "license": "CC-BY-4.0 (http://creativecommons.org/licenses/by/4.0/)",
      "source": "https://sketchfab.com/3d-models/basic-ray-gun-wander-a-nebula-a23487f257d24fc6b717e822db63136a",
      "title": "Basic Ray Gun [Wander A Nebula]"
    },
    "generator": "Sketchfab-12.68.0",
    "version": "2.0"
  },
  "bufferViews": [
    {
      "buffer": 0,
      "byteLength": 27828,
      "name": "floatBufferViews",
      "target": 34963
    },
    {
      "buffer": 0,
      "byteLength": 19072,
      "byteOffset": 27828,
      "byteStride": 8,
      "name": "floatBufferViews",
      "target": 34962
    },
    {
      "buffer": 0,
      "byteLength": 57216,
      "byteOffset": 46900,
      "byteStride": 12,
      "name": "floatBufferViews",
      "target": 34962
    },
    {
      "buffer": 0,
      "byteLength": 29200,
      "byteOffset": 104116,
      "byteStride": 16,
      "name": "floatBufferViews",
      "target": 34962
    }
  ],
  "buffers": [
    {
      "byteLength": 133316,
      "uri": "scene.bin"
    }
  ],
  "images": [
    {
      "uri": "textures/Ray_Gun_baseColor.png"
    },
    {
      "uri": "textures/Ray_Gun_metallicRoughness.png"
    },
    {
      "uri": "textures/Ray_Gun_normal.png"
    },
    {
      "uri": "textures/Emissive_Parts_baseColor.png"
    },
    {
      "uri": "textures/Emissive_Parts_emissive.png"
    }
  ],
  "materials": [
    {
      "doubleSided": true,
      "name": "Ray_Gun",
      "normalTexture": {
        "index": 2
      },
      "occlusionTexture": {
        "index": 1
      },
      "pbrMetallicRoughness": {
        "baseColorTexture": {
          "index": 0
        },
        "metallicRoughnessTexture": {
          "index": 1
        }
      }
    },
    {
      "doubleSided": true,
      "emissiveFactor": [
        1.0,
        1.0,
        1.0
      ],
      "emissiveTexture": {
        "index": 4
      },
      "name": "Emissive_Parts",
      "pbrMetallicRoughness": {
        "baseColorTexture": {
          "index": 3
        },
        "metallicFactor": 0.0,
        "roughnessFactor": 0.19595917942265426
      }
    }
  ],
  "meshes": [
    {
      "name": "Ray Grip_Ray Gun_0",
      "primitives": [
        {
          "attributes": {
            "NORMAL": 1,
            "POSITION": 0,
            "TANGENT": 2,
            "TEXCOORD_0": 3
          },
          "indices": 4,
          "material": 0,
          "mode": 4
        }
      ]
    },
    {
      "name": "Trigger_Ray Gun_0",
      "primitives": [
        {
          "attributes": {
            "NORMAL": 6,
            "POSITION": 5,
            "TANGENT": 7,
            "TEXCOORD_0": 8
          },
          "indices": 9,
          "material": 0,
          "mode": 4
        }
      ]
    },
    {
      "name": "Ray Barrel_Emissive Parts_0",
      "primitives": [
        {
          "attributes": {
            "NORMAL": 11,
            "POSITION": 10,
            "TEXCOORD_0": 12
          },
          "indices": 13,
          "material": 1,
          "mode": 4
        }
      ]
    },
    {
      "name": "Ray Barrel_Ray Gun_0",
      "primitives": [
        {
          "attributes": {
            "NORMAL": 15,
            "POSITION": 14,
            "TANGENT": 16,
            "TEXCOORD_0": 17
          },
          "indices": 18,
          "material": 0,
          "mode": 4
        }
      ]
    },
    {
      "name": "Ray Base_Ray Gun_0",
      "primitives": [
        {
          "attributes": {
            "NORMAL": 20,
            "POSITION": 19,
            "TANGENT": 21,
            "TEXCOORD_0": 22
          },
          "indices": 23,
          "material": 0,
          "mode": 4
        }
      ]
    },
    {
      "name": "Ray Base_Emissive Parts_0",
      "primitives": [
        {
          "attributes": {
            "NORMAL": 25,
            "POSITION": 24,
            "TEXCOORD_0": 26
          },
          "indices": 27,
          "material": 1,
          "mode": 4
        }
      ]
    },
    {
      "name": "Iron Sights_Ray Gun_0",
      "primitives": [
        {
          "attributes": {
            "NORMAL": 29,
            "POSITION": 28,
            "TANGENT": 30,
            "TEXCOORD_0": 31
          },
          "indices": 32,
          "material": 0,
          "mode": 4
        }
      ]
    }
  ],
  "nodes": [
    {
      "children": [
        1
      ],
      "matrix": [
        1.0,
        0.0,
        0.0,
        0.0,
        0.0,
        2.220446049250313e-16,
        -1.0,
        0.0,
        0.0,
        1.0,
        2.220446049250313e-16,
        0.0,
        0.0,
        0.0,
        0.0,
        1.0
      ],
      "name": "Sketchfab_model"
    },
    {
      "children": [
        2
      ],
      "matrix": [
        1.0,
        0.0,
        0.0,
        0.0,
        0.0,
        0.0,
        1.0,
        0.0,
        0.0,
        -1.0,
        0.0,
        0.0,
        0.0,
        0.0,
        0.0,
        1.0
      ],
      "name": "d2fc2b8c931947e5bf0c81096f9ccd9a.fbx"
    },
    {
      "children": [
        3,
        5,
        7,
        10,
        13
      ],
      "name": "RootNode"
    },
    {
      "children": [
        4
      ],
      "matrix": [
        100.0,
        0.0,
        0.0,
        0.0,
        0.0,
        -1.629206793918314e-05,
        -99.99999999999868,
        0.0,
        0.0,
        99.99999999999868,
        -1.629206793918314e-05,
        0.0,
        0.0,
        0.0,
        0.0,
        1.0
      ],
      "name": "Ray Grip"
    },
    {
      "mesh": 0,
      "name": "Ray Grip_Ray Gun_0"
    },
    {
      "children": [
        6
      ],
      "matrix": [
        100.0,
        0.0,
        0.0,
        0.0,
        0.0,
        -1.629206793918314e-05,
        -99.99999999999868,
        0.0,
        0.0,
        99.99999999999868,
        -1.629206793918314e-05,
        0.0,
        0.0,
        0.0,
        0.0,
        1.0
      ],
      "name": "Trigger"
    },
    {
      "mesh": 1,
      "name": "Trigger_Ray Gun_0"
    },
    {
      "children": [
        8,
        9
      ],
      "matrix": [
        100.0,
        0.0,
        0.0,
        0.0,
        0.0,
        -1.629206793918314e-05,
        -99.99999999999868,
        0.0,
        0.0,
        99.99999999999868,
        -1.629206793918314e-05,
        0.0,
        0.0,
        0.0,
        0.0,
        1.0
      ],
      "name": "Ray Barrel"
    },
    {
      "mesh": 2,
      "name": "Ray Barrel_Emissive Parts_0"
    },
    {
      "mesh": 3,
      "name": "Ray Barrel_Ray Gun_0"
    },
    {
      "children": [
        11,
        12
      ],
      "matrix": [
        100.0,
        2.220446313948109e-14,
        -2.220446313948109e-14,
        0.0,
        2.2204466492261492e-14,
        -99.99999999999889,
        1.5099579909783709e-05,
        0.0,
        -2.2204459786700185e-14,
        -1.5099579909783709e-05,
        -99.99999999999889,
        0.0,
        0.0,
        0.0,
        0.0,
        1.0
      ],
      "name": "Ray Base"
    },
    {
      "mesh": 4,
      "name": "Ray Base_Ray Gun_0"
    },
    {
      "mesh": 5,
      "name": "Ray Base_Emissive Parts_0"
    },
    {
      "children": [
        14
      ],
      "matrix": [
        100.0,
        0.0,
        0.0,
        0.0,
        0.0,
        -1.629206793918314e-05,
        -99.99999999999868,
        0.0,
        0.0,
        99.99999999999868,
        -1.629206793918314e-05,
        0.0,
        0.0,
        0.0,
        0.0,
        1.0
      ],
      "name": "Iron Sights"
    },
    {
      "mesh": 6,
      "name": "Iron Sights_Ray Gun_0"
    }
  ],
  "samplers": [
    {
      "magFilter": 9729,
      "minFilter": 9987,
      "wrapS": 10497,
      "wrapT": 10497
    }
  ],
  "scene": 0,
  "scenes": [
    {
      "name": "Sketchfab_Scene",
      "nodes": [
        0
      ]
    }
  ],
  "textures": [
    {
      "sampler": 0,
      "source": 0
    },
    {
      "sampler": 0,
      "source": 1
    },
    {
      "sampler": 0,
      "source": 2
    },
    {
      "sampler": 0,
      "source": 3
    },
    {
      "sampler": 0,
      "source": 4
    }
  ]
}
